<svg xmlns="http://www.w3.org/2000/svg" xmlns:xlink="http://www.w3.org/1999/xlink" width="1080" zoomAndPan="magnify" viewBox="0 0 810 809.999993" height="1080" preserveAspectRatio="xMidYMid meet" version="1.0"><defs><clipPath id="7900fca198"><path d="M 57.78125 0 L 752.210938 0 L 752.210938 810 L 57.78125 810 Z M 57.78125 0 " clip-rule="nonzero"/></clipPath></defs><g clip-path="url(#7900fca198)"><path fill="#ffffff" d="M 61.054688 264.933594 L 168.421875 200.804688 L 168.421875 74 C 168.421875 71.761719 169.585938 69.6875 171.5 68.515625 L 281.996094 0.945312 C 284.054688 -0.316406 286.644531 -0.316406 288.699219 0.945312 L 399.195312 68.515625 C 401.105469 69.6875 402.273438 71.761719 402.273438 74 L 402.273438 200.804688 L 506.34375 262.96875 L 613.542969 198.933594 C 615.566406 197.722656 618.105469 197.722656 620.128906 198.933594 L 730.625 264.933594 C 732.566406 266.089844 733.757812 268.1875 733.757812 270.449219 L 733.757812 400.640625 C 742.253906 422.164062 752.140625 452.496094 752.140625 477.117188 C 752.140625 487.335938 750.40625 497.277344 746.992188 506.648438 C 741.65625 521.285156 727.695312 530.75 711.414062 530.75 C 695.132812 530.75 681.164062 521.292969 675.828125 506.648438 C 672.410156 497.277344 670.679688 487.335938 670.679688 477.117188 C 670.679688 466.636719 672.5 454.289062 676.097656 440.253906 L 623.261719 472.09375 L 623.261719 600.472656 C 623.261719 602.738281 622.070312 604.832031 620.128906 605.988281 L 583.085938 628.117188 L 583.085938 645.996094 C 583.542969 675.507812 575.238281 696.476562 562.433594 698.164062 C 553.753906 699.324219 548.195312 690.390625 543.714844 683.222656 C 542.96875 682.03125 542.019531 680.507812 541.167969 679.269531 C 538.566406 684.480469 540.480469 701.953125 541.804688 714.085938 C 544.796875 741.421875 548.515625 775.441406 530.996094 794.988281 C 522.109375 804.902344 508.746094 809.929688 491.277344 809.929688 C 473.035156 809.929688 458.210938 804.164062 448.421875 793.261719 C 438.34375 782.023438 433.894531 765.609375 435.90625 747.03125 C 437.597656 731.421875 442.914062 715.164062 447.605469 700.824219 C 451.273438 689.613281 458.09375 668.75 454.328125 667.492188 C 453.679688 667.335938 450.882812 668.796875 449.191406 669.671875 C 444.140625 672.273438 436.496094 676.226562 428.210938 672.203125 C 419.039062 667.761719 416.71875 656.972656 414.679688 647.460938 C 412.648438 637.992188 412 628.121094 412.757812 618.074219 L 395.855469 607.976562 L 318.820312 653.992188 C 329.742188 679.710938 335.277344 701.445312 335.277344 718.65625 C 335.277344 729.617188 333.019531 740.25 328.574219 750.265625 C 321.753906 765.625 304.867188 775.167969 284.503906 775.167969 C 264.140625 775.167969 247.253906 765.628906 240.433594 750.265625 C 235.984375 740.238281 233.730469 729.605469 233.730469 718.65625 C 233.730469 701.261719 239.378906 679.253906 250.53125 653.175781 L 171.5625 606.007812 C 169.621094 604.851562 168.433594 602.753906 168.433594 600.492188 L 168.433594 472.113281 L 61.066406 407.976562 C 59.128906 406.820312 57.9375 404.722656 57.9375 402.460938 L 57.9375 270.449219 C 57.925781 268.1875 59.113281 266.089844 61.054688 264.933594 Z M 285.34375 13.960938 L 181.277344 77.597656 L 181.277344 200.796875 L 285.34375 262.960938 L 389.414062 200.796875 L 389.414062 77.605469 Z M 395.839844 460.980469 L 499.910156 398.816406 L 499.910156 274.101562 L 395.839844 211.9375 L 291.773438 274.101562 L 291.773438 398.816406 Z M 683.535156 420.761719 C 685.824219 419.378906 688.75 419.5625 690.84375 421.226562 C 692.945312 422.890625 693.792969 425.679688 692.976562 428.234375 C 686.71875 447.71875 683.542969 464.160156 683.542969 477.117188 C 683.542969 485.832031 685.015625 494.285156 687.914062 502.25 C 692.117188 513.785156 702.8125 517.890625 711.417969 517.890625 C 720.027344 517.890625 730.714844 513.785156 734.921875 502.25 C 737.8125 494.285156 739.285156 485.832031 739.285156 477.117188 C 739.285156 452.878906 728.054688 421.058594 721.355469 404.246094 C 721.054688 403.488281 720.902344 402.679688 720.902344 401.871094 L 720.902344 274.09375 L 616.832031 211.929688 L 512.765625 274.09375 L 512.765625 398.808594 L 616.820312 460.96875 Z M 422.824219 609.105469 C 424.992188 610.398438 426.199219 612.84375 425.917969 615.347656 C 424.78125 625.453125 425.222656 635.347656 427.242188 644.753906 C 428.667969 651.394531 430.28125 658.921875 433.804688 660.625 C 436.058594 661.71875 438.542969 660.691406 443.292969 658.234375 C 447.667969 655.976562 452.625 653.414062 458.121094 655.226562 C 474.304688 660.535156 467.597656 681.054688 459.816406 704.816406 C 455.324219 718.558594 450.226562 734.136719 448.683594 748.40625 C 447.078125 763.308594 450.375 776.1875 457.984375 784.664062 C 465.371094 792.898438 476.574219 797.070312 491.277344 797.070312 C 505.128906 797.070312 514.988281 793.585938 521.421875 786.40625 C 535.113281 771.140625 531.738281 740.277344 529.027344 715.480469 C 526.269531 690.273438 523.886719 668.5 540.226562 665.183594 C 546.75 663.847656 550.582031 669.953125 554.617188 676.414062 C 556.191406 678.933594 559.347656 683.992188 561.171875 685.273438 C 564.183594 683.722656 570.617188 670.980469 570.230469 646.097656 L 570.230469 624.472656 C 570.230469 622.207031 571.417969 620.113281 573.359375 618.957031 L 610.40625 596.828125 L 610.40625 472.113281 L 506.335938 409.949219 L 402.269531 472.113281 L 402.269531 596.828125 Z M 261.972656 645.035156 C 264.769531 646.707031 265.875 650.203125 264.542969 653.175781 C 252.78125 679.511719 246.570312 702.152344 246.570312 718.648438 C 246.570312 727.792969 248.457031 736.667969 252.175781 745.039062 C 256.832031 755.523438 269.519531 762.300781 284.496094 762.300781 C 299.472656 762.300781 312.164062 755.523438 316.816406 745.03125 C 320.539062 736.667969 322.421875 727.792969 322.421875 718.644531 C 322.421875 702.316406 316.328125 679.949219 304.800781 653.960938 C 303.484375 650.988281 304.589844 647.503906 307.378906 645.832031 L 389.414062 596.835938 L 389.414062 472.121094 L 285.34375 409.957031 L 181.277344 472.121094 L 181.277344 596.835938 Z M 70.78125 398.816406 L 174.847656 460.980469 L 278.917969 398.816406 L 278.917969 274.101562 L 174.847656 211.9375 L 70.78125 274.101562 Z M 70.78125 398.816406 " fill-opacity="1" fill-rule="nonzero"/></g><path fill="#ffffff" d="M 576.660156 710.828125 C 588.511719 710.828125 598.152344 720.546875 598.152344 732.492188 C 598.152344 744.433594 588.511719 754.148438 576.660156 754.148438 C 564.804688 754.148438 555.164062 744.433594 555.164062 732.492188 C 555.164062 720.546875 564.796875 710.828125 576.660156 710.828125 Z M 576.660156 741.292969 C 581.421875 741.292969 585.296875 737.34375 585.296875 732.492188 C 585.296875 727.636719 581.421875 723.683594 576.660156 723.683594 C 571.894531 723.683594 568.019531 727.628906 568.019531 732.492188 C 568.011719 737.34375 571.890625 741.292969 576.660156 741.292969 Z M 576.660156 741.292969 " fill-opacity="1" fill-rule="nonzero"/><path fill="#ffffff" d="M 486.25 726.0625 C 498.101562 726.0625 507.746094 735.777344 507.746094 747.71875 C 507.746094 759.664062 498.101562 769.382812 486.25 769.382812 C 474.394531 769.382812 464.753906 759.664062 464.753906 747.71875 C 464.753906 735.777344 474.394531 726.0625 486.25 726.0625 Z M 486.25 756.527344 C 491.011719 756.527344 494.890625 752.578125 494.890625 747.71875 C 494.890625 742.867188 491.011719 738.917969 486.25 738.917969 C 481.488281 738.917969 477.609375 742.867188 477.609375 747.71875 C 477.609375 752.578125 481.488281 756.527344 486.25 756.527344 Z M 486.25 756.527344 " fill-opacity="1" fill-rule="nonzero"/></svg>