<svg xmlns="http://www.w3.org/2000/svg" xmlns:xlink="http://www.w3.org/1999/xlink" width="1080" zoomAndPan="magnify" viewBox="0 0 810 809.999993" height="1080" preserveAspectRatio="xMidYMid meet" version="1.0"><defs><clipPath id="62a4a66182"><path d="M 12.023438 7.050781 L 797.964844 7.050781 L 797.964844 802.800781 L 12.023438 802.800781 Z M 12.023438 7.050781 " clip-rule="nonzero"/></clipPath></defs><g clip-path="url(#62a4a66182)"><path fill="#f7bd2b" d="M 37.582031 96.929688 L 11.964844 52.414062 L 37.925781 7.382812 L 89.84375 7.382812 L 115.804688 52.414062 L 162.90625 52.414062 L 189.039062 7.382812 L 240.957031 7.382812 L 266.917969 52.414062 L 314.023438 52.414062 L 339.980469 7.382812 L 391.898438 7.382812 L 418.03125 52.414062 L 465.824219 52.414062 L 491.78125 7.382812 L 543.703125 7.382812 L 569.660156 52.414062 L 617.453125 52.414062 L 643.414062 7.382812 L 695.503906 7.382812 L 721.460938 52.414062 L 772.007812 52.414062 L 797.964844 97.445312 L 772.007812 142.476562 L 720.773438 142.476562 L 695.332031 186.472656 L 643.414062 186.472656 L 617.96875 142.476562 L 569.144531 142.476562 L 543.703125 186.472656 L 493.160156 186.472656 L 467.714844 230.472656 L 417.34375 230.472656 L 391.898438 274.472656 L 342.042969 274.472656 L 317.289062 317.441406 L 342.730469 361.441406 L 316.773438 406.472656 L 266.402344 406.472656 L 241.644531 449.441406 L 267.089844 493.4375 L 241.128906 538.46875 L 191.273438 538.46875 L 166.519531 581.4375 L 191.960938 625.4375 L 166.519531 669.4375 L 191.960938 713.4375 L 166.003906 758.46875 L 115.632812 758.46875 L 90.1875 802.464844 L 38.269531 802.464844 L 12.308594 757.4375 L 37.753906 713.4375 L 12.308594 669.4375 L 37.753906 625.4375 L 12.308594 581.4375 L 37.753906 537.4375 L 12.308594 493.4375 L 37.753906 449.441406 L 12.308594 405.441406 L 37.753906 361.441406 L 12.308594 317.441406 L 37.753906 273.441406 L 12.308594 229.441406 L 37.753906 185.441406 L 12.308594 141.445312 Z M 88.296875 184.238281 L 113.050781 141.273438 L 88.296875 98.304688 L 39.128906 98.304688 L 14.371094 141.273438 L 39.128906 184.238281 Z M 315.570312 316.238281 L 339.808594 274.128906 L 314.539062 230.300781 L 266.230469 230.300781 L 241.472656 273.269531 L 266.230469 316.238281 Z M 390.523438 184.238281 L 415.28125 141.273438 L 390.523438 98.304688 L 342.214844 98.304688 L 317.460938 141.273438 L 342.214844 184.238281 Z M 466.339844 140.414062 L 491.265625 97.273438 L 466.511719 54.476562 L 416.828125 54.476562 L 392.242188 97.101562 L 417.171875 140.414062 Z M 643.070312 97.101562 L 618.484375 54.476562 L 568.800781 54.476562 L 544.21875 97.101562 L 569.144531 140.414062 L 617.96875 140.414062 Z M 266.402344 142.304688 L 241.644531 185.269531 L 266.402344 228.238281 L 314.710938 228.238281 L 339.464844 185.269531 L 314.710938 142.304688 Z M 115.285156 142.304688 L 90.53125 185.269531 L 115.285156 228.238281 L 163.59375 228.238281 L 188.351562 185.269531 L 163.59375 142.304688 Z M 163.59375 492.234375 L 188.351562 449.269531 L 163.59375 406.300781 L 115.285156 406.300781 L 90.53125 449.269531 L 115.285156 492.234375 Z M 239.410156 360.238281 L 264.167969 317.269531 L 239.410156 274.300781 L 191.101562 274.300781 L 166.347656 317.269531 L 191.101562 360.238281 Z M 191.101562 186.300781 L 166.347656 229.269531 L 191.101562 272.238281 L 239.410156 272.238281 L 264.167969 229.269531 L 239.410156 186.300781 Z M 191.101562 184.238281 L 239.410156 184.238281 L 264.167969 141.273438 L 239.410156 98.304688 L 191.101562 98.304688 L 166.347656 141.273438 Z M 163.59375 404.238281 L 188.351562 361.269531 L 163.59375 318.300781 L 115.285156 318.300781 L 90.53125 361.269531 L 115.285156 404.238281 Z M 163.59375 316.238281 L 188.351562 273.269531 L 163.59375 230.300781 L 115.285156 230.300781 L 90.53125 273.269531 L 115.285156 316.238281 Z M 239.410156 362.300781 L 191.101562 362.300781 L 166.347656 405.269531 L 191.101562 448.238281 L 239.753906 448.238281 L 264.339844 405.613281 Z M 163.59375 494.125 L 115.285156 494.125 L 90.53125 537.09375 L 115.285156 580.0625 L 164.628906 580.0625 L 188.867188 537.953125 Z M 88.8125 9.445312 L 39.128906 9.445312 L 14.371094 52.414062 L 39.128906 95.382812 L 88.8125 95.382812 L 113.566406 52.414062 Z M 114.941406 54.476562 L 90.359375 97.101562 L 115.289062 140.414062 L 163.59375 140.414062 L 188.695312 96.929688 L 164.109375 54.476562 Z M 239.753906 9.445312 L 190.070312 9.445312 L 165.316406 52.414062 L 165.660156 52.414062 L 190.414062 95.382812 L 239.582031 95.382812 L 264.339844 52.414062 Z M 266.058594 54.476562 L 241.472656 97.101562 L 266.402344 140.414062 L 314.710938 140.414062 L 339.808594 96.929688 L 315.226562 54.476562 Z M 390.867188 9.445312 L 341.183594 9.445312 L 316.429688 52.414062 L 316.773438 52.414062 L 341.527344 95.382812 L 390.695312 95.382812 L 415.453125 52.414062 Z M 542.671875 9.445312 L 492.988281 9.445312 L 468.230469 52.414062 L 492.988281 95.382812 L 542.671875 95.382812 L 567.425781 52.414062 Z M 694.300781 9.445312 L 644.617188 9.445312 L 619.859375 52.414062 L 644.617188 95.382812 L 694.300781 95.382812 L 719.054688 52.414062 Z M 795.558594 97.445312 L 770.800781 54.476562 L 721.117188 54.476562 L 696.363281 97.445312 L 721.117188 140.414062 L 770.800781 140.414062 Z M 644.617188 184.238281 L 694.300781 184.238281 L 719.054688 141.273438 L 694.300781 98.304688 L 644.960938 98.304688 L 620.03125 141.617188 Z M 567.253906 141.617188 L 542.328125 98.304688 L 493.332031 98.304688 L 468.574219 141.273438 L 493.332031 184.238281 L 542.671875 184.238281 Z M 491.265625 185.613281 L 466.339844 142.476562 L 417.34375 142.476562 L 392.585938 185.441406 L 417.34375 228.410156 L 466.683594 228.410156 Z M 415.453125 229.613281 L 390.523438 186.300781 L 342.214844 186.300781 L 317.460938 229.269531 L 342.214844 272.238281 L 390.867188 272.238281 Z M 340.496094 361.269531 L 315.742188 318.300781 L 266.574219 318.300781 L 241.816406 361.269531 L 266.574219 404.238281 L 315.742188 404.238281 Z M 264.511719 493.265625 L 239.753906 450.300781 L 191.101562 450.300781 L 166.347656 493.265625 L 191.101562 536.234375 L 239.753906 536.234375 Z M 164.628906 582.125 L 115.285156 582.125 L 90.53125 625.09375 L 115.285156 668.0625 L 164.457031 668.0625 L 189.210938 625.09375 Z M 189.382812 713.09375 L 164.628906 670.125 L 115.285156 670.125 L 90.53125 713.09375 L 115.285156 756.0625 L 164.457031 756.0625 Z M 39.128906 800.058594 L 88.8125 800.058594 L 113.394531 757.4375 L 88.46875 714.125 L 39.300781 714.125 L 14.542969 757.09375 Z M 39.128906 712.0625 L 88.296875 712.0625 L 113.050781 669.09375 L 88.296875 626.125 L 39.128906 626.125 L 14.371094 669.09375 Z M 39.128906 624.0625 L 88.296875 624.0625 L 113.050781 581.09375 L 88.296875 538.125 L 39.128906 538.125 L 14.371094 581.09375 Z M 39.128906 536.234375 L 88.296875 536.234375 L 113.050781 493.265625 L 88.296875 450.300781 L 39.128906 450.300781 L 14.371094 493.265625 Z M 39.128906 448.238281 L 88.296875 448.238281 L 113.050781 405.269531 L 88.296875 362.300781 L 39.128906 362.300781 L 14.371094 405.269531 Z M 39.128906 360.238281 L 88.296875 360.238281 L 113.050781 317.269531 L 88.296875 274.300781 L 39.128906 274.300781 L 14.371094 317.269531 Z M 39.128906 272.238281 L 88.296875 272.238281 L 113.050781 229.269531 L 88.296875 186.300781 L 39.128906 186.300781 L 14.371094 229.269531 Z M 39.128906 272.238281 " fill-opacity="1" fill-rule="nonzero"/></g></svg>