<?xml version="1.0" standalone="no"?>
<!DOCTYPE svg PUBLIC "-//W3C//DTD SVG 20010904//EN"
 "http://www.w3.org/TR/2001/REC-SVG-20010904/DTD/svg10.dtd">
<svg version="1.0" xmlns="http://www.w3.org/2000/svg"
 width="700.000000pt" height="700.000000pt" viewBox="0 0 700.000000 700.000000"
 preserveAspectRatio="xMidYMid meet">
<metadata>
Created by potrace 1.14, written by Peter Selinger 2001-2017
</metadata>
<g transform="translate(0.000000,700.000000) scale(0.100000,-0.100000)"
fill="#000000" stroke="none">
<path d="M2556 5822 c-4 -3 -16 -7 -28 -9 -12 -2 -27 -8 -35 -14 -7 -6 -13 -9
-13 -5 0 3 -8 -2 -18 -11 -11 -10 -17 -21 -15 -25 2 -5 0 -8 -5 -8 -6 0 -13
-12 -18 -27 -10 -37 -12 -103 -2 -103 4 0 5 -6 2 -14 -3 -7 2 -20 10 -29 9 -9
16 -20 16 -24 0 -14 81 -52 101 -48 11 2 19 0 19 -5 0 -9 19 -8 37 3 6 4 15 3
18 -3 5 -8 11 -7 21 1 8 6 14 7 14 2 0 -12 30 -11 49 2 9 5 12 4 7 -3 -4 -7 1
-10 14 -9 11 1 20 4 20 7 0 4 7 7 15 7 8 0 12 -3 10 -6 -5 -9 130 -6 144 3 6
4 11 3 11 -1 0 -5 9 -9 20 -10 13 -1 18 2 14 10 -5 8 -3 8 7 0 7 -7 22 -13 33
-13 11 0 35 -16 53 -36 33 -36 37 -46 34 -73 -2 -7 2 -10 8 -6 7 4 12 -4 13
-19 2 -47 3 -51 10 -56 10 -8 -3 -51 -13 -44 -5 3 -9 0 -9 -5 0 -6 -6 -10 -12
-9 -7 2 -12 -2 -11 -9 1 -6 -5 -10 -15 -8 -9 1 -19 -1 -22 -4 -14 -18 -63 -50
-70 -46 -5 3 -11 -4 -15 -15 -4 -11 -10 -18 -15 -15 -5 3 -18 -7 -29 -21 -12
-15 -21 -23 -21 -18 0 5 -11 -3 -24 -18 -12 -15 -26 -25 -30 -21 -3 3 -6 -4
-6 -16 0 -12 -4 -19 -10 -16 -5 3 -10 3 -10 -2 0 -4 -18 -28 -40 -53 -22 -25
-40 -51 -40 -58 0 -7 -4 -10 -10 -7 -6 3 -7 -1 -4 -9 4 -10 1 -16 -10 -16 -10
0 -13 -6 -10 -15 4 -8 1 -15 -6 -15 -6 0 -8 -4 -5 -10 3 -5 1 -10 -5 -10 -6 0
-8 -4 -5 -10 3 -5 1 -10 -5 -10 -6 0 -8 -4 -5 -10 3 -5 -3 -20 -14 -32 -16
-16 -18 -25 -10 -35 8 -9 8 -14 -3 -18 -7 -3 -14 -15 -15 -26 -1 -11 -8 -33
-17 -49 -8 -17 -10 -30 -5 -30 6 0 7 -6 2 -12 -9 -16 -13 -34 -15 -73 0 -16
-6 -33 -12 -37 -6 -5 -7 -8 -1 -8 12 0 13 -79 2 -97 -4 -6 -3 -15 3 -18 6 -4
10 -21 10 -38 0 -52 3 -67 14 -67 6 0 4 -5 -4 -10 -12 -8 -12 -10 -1 -10 8 0
11 -3 8 -6 -3 -4 -2 -16 4 -27 8 -15 8 -18 -1 -12 -9 5 -8 1 1 -16 7 -13 12
-27 11 -31 -1 -5 2 -8 6 -8 6 0 7 -16 3 -64 -1 -5 -7 -3 -14 3 -8 6 -17 8 -20
4 -4 -3 -7 -1 -7 5 0 6 -16 16 -34 23 -19 7 -32 17 -29 22 3 5 -4 6 -17 2 -16
-5 -20 -4 -15 5 4 7 -1 13 -14 17 -12 3 -21 10 -21 15 0 5 -5 6 -11 2 -6 -3
-24 7 -41 22 -17 16 -28 23 -24 17 12 -21 -8 -15 -24 6 -7 11 -17 18 -22 15
-4 -3 -8 0 -8 5 0 6 -3 10 -7 9 -10 -2 -47 14 -53 22 -10 14 -95 54 -109 51
-7 -1 -10 2 -7 7 3 5 -16 20 -42 33 -26 13 -53 30 -60 37 -8 6 -18 10 -23 7
-5 -4 -9 -2 -9 3 0 4 -16 14 -35 22 -19 8 -35 17 -35 21 0 8 -43 24 -48 18 -2
-2 -8 4 -13 14 -6 9 -19 17 -29 17 -11 0 -20 5 -20 10 0 6 -7 10 -15 10 -8 0
-15 5 -15 11 0 5 -4 7 -10 4 -5 -3 -10 -1 -10 5 0 6 -4 8 -10 5 -5 -3 -10 -1
-10 5 0 6 -4 9 -9 6 -5 -3 -11 1 -15 9 -3 8 -15 15 -26 15 -11 0 -23 6 -26 14
-3 8 -12 17 -20 20 -8 3 -13 2 -10 -3 4 -5 -5 -4 -18 2 -13 7 -23 14 -21 17 2
3 -10 13 -26 23 -17 9 -27 12 -24 7 6 -10 -57 29 -82 50 -7 6 -13 9 -13 6 0
-3 -19 3 -42 14 -23 10 -46 16 -50 14 -4 -3 -8 -1 -8 3 0 8 -28 13 -77 16 -7
0 -13 4 -13 9 0 5 -10 4 -21 -3 -16 -8 -20 -8 -14 0 4 8 -3 11 -22 9 -16 -1
-34 1 -41 6 -7 4 -12 2 -12 -6 0 -9 -3 -9 -10 2 -5 8 -10 11 -10 5 0 -6 -35
-9 -90 -8 -63 2 -89 -1 -84 -8 4 -8 0 -8 -14 0 -12 6 -23 7 -26 2 -4 -5 -17
-8 -31 -6 -14 1 -25 -1 -25 -5 0 -7 -9 -9 -55 -12 -14 -1 -25 -6 -25 -10 0 -4
-3 -7 -7 -7 -18 3 -73 -14 -73 -23 0 -5 -4 -6 -10 -3 -5 3 -10 1 -10 -4 0 -6
-5 -11 -11 -11 -5 0 -7 6 -4 13 4 6 -1 3 -9 -7 -9 -11 -16 -16 -16 -11 0 4 -8
1 -18 -8 -10 -10 -22 -14 -25 -10 -4 3 -7 1 -7 -6 0 -7 -4 -9 -10 -6 -6 3 -10
-1 -10 -9 0 -9 -6 -13 -14 -10 -8 3 -21 -4 -29 -16 -9 -12 -20 -19 -25 -16 -6
3 -13 -1 -16 -10 -3 -8 -10 -13 -15 -10 -5 3 -11 -4 -14 -15 -3 -12 -10 -18
-15 -15 -6 3 -13 -1 -16 -10 -3 -8 -11 -12 -17 -8 -7 4 -10 3 -7 -2 7 -11 -17
-35 -26 -27 -6 6 -10 -13 -7 -30 1 -5 -2 -6 -7 -3 -9 5 -82 -66 -82 -79 0 -4
-12 -18 -26 -31 -15 -14 -22 -29 -18 -37 4 -6 4 -9 -1 -5 -8 7 -42 -31 -38
-42 1 -3 -8 -16 -20 -29 -12 -13 -17 -21 -10 -17 6 3 2 -13 -10 -36 -12 -24
-25 -45 -30 -46 -4 -2 -5 -7 -2 -12 3 -5 -2 -16 -11 -24 -11 -12 -12 -16 -2
-16 10 0 10 -2 -1 -9 -7 -5 -10 -14 -7 -20 4 -6 2 -11 -4 -11 -7 0 -10 -7 -7
-15 4 -8 1 -17 -4 -21 -6 -3 -9 -17 -6 -30 2 -13 0 -22 -6 -21 -9 2 -12 -16
-18 -106 -1 -26 -6 -50 -11 -53 -4 -3 -4 -13 1 -22 6 -11 6 -24 0 -35 -7 -11
-7 -17 0 -17 10 0 9 -19 -2 -37 -5 -7 -4 -13 0 -13 5 0 9 -15 10 -32 2 -67 8
-118 14 -118 6 0 9 -18 10 -55 0 -10 5 -25 10 -32 6 -6 8 -17 4 -23 -3 -5 -1
-10 5 -10 6 0 8 -4 5 -10 -3 -5 -1 -10 5 -10 6 0 8 -4 5 -10 -3 -5 -2 -10 4
-10 6 0 8 -7 5 -15 -4 -8 -1 -15 5 -15 6 0 11 -11 11 -25 0 -14 3 -25 8 -25 4
0 13 -9 20 -21 10 -16 11 -19 1 -13 -7 4 0 -9 15 -29 16 -20 24 -37 20 -37 -5
0 -1 -5 9 -11 9 -6 15 -14 12 -20 -4 -5 1 -9 10 -9 9 0 13 -4 10 -10 -3 -5 -2
-10 4 -10 5 0 13 -9 16 -20 3 -11 13 -20 21 -20 8 0 12 -4 9 -10 -3 -5 23 -37
57 -71 35 -35 62 -67 60 -73 -2 -6 0 -8 4 -4 4 4 25 -6 47 -22 23 -17 47 -30
55 -30 7 0 11 -4 8 -8 -3 -5 21 -21 54 -38 32 -16 55 -33 52 -39 -3 -5 1 -4
10 3 14 11 18 11 25 0 10 -16 72 -39 84 -32 5 3 9 0 9 -5 0 -6 8 -11 18 -11
10 0 22 -3 26 -7 8 -9 33 -14 68 -14 15 0 30 -4 33 -8 2 -5 16 -7 30 -6 14 2
27 0 30 -5 3 -4 20 -4 39 0 19 4 40 4 46 0 7 -4 25 -7 39 -5 14 2 32 -2 40 -9
11 -8 13 -8 8 1 -6 10 13 14 86 14 9 0 15 5 11 11 -4 6 3 5 16 -2 17 -9 21 -9
15 0 -5 9 -1 10 14 5 11 -3 21 -2 21 3 0 5 11 8 25 7 14 -2 25 1 25 6 0 6 5 7
10 4 6 -3 10 -3 10 2 0 4 11 9 25 10 46 4 55 6 55 15 0 5 4 7 9 3 5 -3 12 -1
16 5 4 6 11 8 16 5 5 -4 9 -1 9 5 0 6 5 8 10 5 6 -4 18 -1 27 7 14 11 16 11 9
-2 -4 -8 0 -6 8 4 9 11 16 17 16 13 0 -4 11 0 25 9 13 8 28 13 33 10 6 -3 15
1 22 9 7 8 16 12 21 9 5 -3 9 0 9 6 0 6 5 8 10 5 6 -3 10 -1 10 5 0 6 4 9 9 6
5 -3 12 1 15 10 3 8 9 13 13 11 5 -3 19 0 33 6 14 5 32 11 40 13 8 2 16 7 18
13 2 5 10 7 18 4 8 -3 14 -1 14 5 0 9 47 27 63 24 4 -1 7 3 7 9 0 5 4 8 9 5 5
-4 11 -2 13 4 2 6 14 12 28 15 14 3 26 9 28 14 2 6 10 7 18 4 7 -3 16 2 20 10
3 9 12 13 19 11 7 -3 16 0 20 5 3 6 11 9 16 6 5 -4 9 -1 9 5 0 6 4 9 9 6 5 -3
11 0 14 8 3 8 16 12 31 11 14 -2 24 0 22 4 -3 4 4 13 16 20 16 10 18 10 12 0
-4 -7 3 -5 17 4 13 9 31 17 40 17 9 0 20 7 23 16 3 8 10 13 14 10 5 -3 21 2
36 9 16 8 32 12 37 9 5 -3 9 -1 9 4 0 10 47 31 84 39 11 2 24 7 30 12 29 22
42 19 41 -9 0 -16 -2 -27 -5 -25 -3 2 -11 -3 -18 -11 -7 -8 -10 -14 -5 -14 4
0 -2 -6 -12 -14 -11 -8 -24 -12 -29 -9 -5 4 -6 1 -2 -5 8 -14 -17 -55 -27 -45
-4 3 -7 -1 -7 -10 0 -10 -5 -17 -11 -17 -5 0 -8 -4 -4 -9 3 -5 -2 -16 -11 -25
-8 -9 -12 -20 -9 -26 4 -6 3 -9 -2 -8 -4 2 -9 -1 -10 -6 -1 -5 -6 -12 -13 -16
-6 -4 -12 -16 -13 -28 0 -11 -5 -18 -9 -16 -7 5 -12 -10 -9 -28 0 -5 -3 -8 -9
-8 -6 0 -9 -3 -8 -7 1 -5 -3 -18 -10 -29 -6 -12 -8 -24 -5 -28 3 -3 1 -6 -5
-6 -6 0 -9 -7 -6 -15 4 -8 2 -15 -3 -15 -10 0 -12 -7 -16 -57 -1 -22 -5 -29
-13 -22 -8 6 -10 1 -8 -18 1 -15 -2 -36 -8 -46 -7 -15 -7 -18 2 -12 7 4 4 -5
-6 -21 -13 -18 -14 -25 -5 -20 11 7 12 6 5 -5 -11 -18 -14 -35 -15 -76 -1 -18
-6 -33 -12 -33 -8 0 -8 -3 -2 -8 11 -8 15 -62 4 -62 -9 0 -6 -34 5 -41 4 -4 3
-16 -3 -28 -7 -11 -8 -21 -3 -21 5 0 9 -7 9 -15 0 -8 -4 -15 -9 -15 -4 0 -3
-9 4 -19 9 -15 9 -23 -3 -37 -9 -11 -9 -15 -1 -10 9 5 12 -4 12 -33 0 -26 5
-41 13 -41 8 0 7 -4 -3 -10 -8 -5 -10 -10 -5 -10 6 0 11 -16 12 -36 1 -20 7
-41 12 -48 6 -7 8 -16 4 -19 -3 -4 0 -14 8 -24 12 -15 12 -16 -1 -9 -8 4 -6 0
4 -8 15 -12 16 -16 5 -16 -12 0 -12 -2 1 -10 8 -5 11 -10 6 -10 -5 0 -3 -6 3
-13 6 -8 8 -17 4 -20 -3 -4 -1 -7 6 -7 7 0 9 -4 6 -10 -3 -5 -2 -10 4 -10 5 0
8 -9 6 -20 -2 -13 0 -18 7 -14 6 4 9 1 6 -7 -3 -8 1 -20 9 -27 7 -8 10 -18 7
-24 -4 -6 -3 -8 3 -5 5 3 17 -7 27 -24 9 -16 14 -29 11 -29 -4 0 1 -7 9 -16 9
-8 14 -20 11 -25 -4 -5 1 -9 9 -9 9 0 16 -9 16 -21 0 -11 5 -17 10 -14 9 5 15
-16 11 -38 -1 -5 3 -6 9 -2 5 3 10 -1 10 -9 0 -9 5 -16 10 -16 6 0 10 -7 10
-15 0 -8 9 -19 20 -25 11 -6 17 -16 13 -26 -3 -9 0 -14 8 -12 7 2 14 -3 15 -9
1 -7 2 -17 3 -23 0 -5 8 -10 17 -10 8 0 12 -5 9 -10 -3 -6 -1 -10 4 -10 6 0
10 -3 8 -8 -1 -4 3 -14 10 -22 7 -8 26 -31 43 -51 16 -20 30 -42 30 -47 0 -6
9 -16 20 -22 11 -6 20 -20 20 -32 0 -12 3 -19 6 -15 8 7 34 -17 34 -32 0 -6 9
-16 20 -23 11 -7 20 -19 20 -26 0 -7 7 -15 15 -18 8 -4 13 -9 10 -14 -2 -4 7
-13 21 -20 13 -8 23 -19 20 -25 -2 -6 5 -17 15 -23 10 -7 19 -19 19 -27 0 -8
3 -14 8 -12 6 2 37 -28 80 -78 6 -8 12 -19 12 -25 0 -5 3 -9 8 -7 4 1 8 -2 9
-6 3 -14 37 -36 47 -30 5 4 6 1 2 -5 -6 -11 30 -52 46 -52 5 0 7 -4 3 -9 -3
-5 4 -13 16 -16 11 -4 18 -9 15 -12 -6 -6 73 -83 86 -83 4 0 8 -6 8 -14 0 -8
9 -18 20 -21 11 -3 20 -13 20 -21 0 -8 5 -12 10 -9 6 3 10 -2 10 -11 0 -10 2
-15 5 -12 3 3 23 -12 45 -33 37 -35 70 -43 70 -17 0 5 4 7 9 3 5 -3 17 5 25
17 9 12 16 19 16 14 0 -5 9 1 20 14 11 13 20 19 20 15 0 -4 9 2 20 15 11 13
20 19 20 15 0 -4 10 4 23 18 12 15 26 27 30 27 6 0 15 8 135 120 34 32 62 56
62 54 0 -3 34 29 75 70 41 41 75 72 76 68 0 -4 4 3 10 16 5 13 13 20 19 17 5
-3 10 -1 10 4 0 6 38 49 85 96 46 47 81 85 77 85 -4 1 4 7 18 15 14 7 24 16
23 19 -6 13 -3 27 5 23 4 -3 13 1 20 9 7 8 10 14 6 14 -4 0 5 9 20 21 14 11
26 27 26 35 0 8 7 14 16 14 10 0 14 6 10 15 -3 9 0 15 10 15 8 0 12 4 9 10 -3
5 -2 10 3 10 6 0 24 23 42 50 18 27 36 50 42 50 5 0 7 4 4 8 -3 5 3 16 12 25
27 25 42 45 42 57 0 5 9 19 20 30 12 12 15 20 8 20 -7 0 -5 5 5 11 9 6 15 14
12 20 -4 5 0 12 9 15 8 3 12 12 10 19 -3 7 -1 16 5 20 6 3 11 15 11 26 0 10 5
19 12 19 6 0 8 3 5 7 -4 3 -2 12 4 20 6 7 8 13 4 13 -4 0 -2 7 5 15 7 8 9 15
5 15 -4 0 -2 7 5 15 7 8 10 15 7 15 -4 0 0 18 8 39 7 22 11 42 8 45 -4 3 -1 6
6 6 8 0 11 8 8 20 -3 11 -2 20 2 20 4 0 7 14 6 30 -1 17 1 30 5 30 6 0 9 25
11 95 1 22 6 43 13 47 8 6 7 8 -2 8 -8 0 -10 5 -6 12 7 11 10 54 4 61 -1 1 -3
18 -4 37 -1 19 -5 41 -10 49 -6 10 -5 12 2 7 16 -9 15 7 0 22 -9 9 -9 12 0 12
8 0 9 7 2 25 -5 14 -7 25 -4 25 2 0 0 8 -5 18 -7 13 -6 23 2 32 9 10 9 11 0 6
-9 -5 -13 2 -14 23 -1 29 -3 41 -9 59 -1 4 -2 10 -1 15 1 4 -5 23 -14 43 -8
19 -10 32 -4 28 6 -3 3 8 -6 25 -9 17 -13 36 -10 41 3 6 2 10 -3 10 -8 0 -20
28 -26 60 -1 3 -5 11 -9 18 -5 6 -5 17 -1 24 4 7 3 8 -4 4 -8 -5 -12 1 -12 14
0 13 -4 19 -12 14 -6 -4 -8 -3 -4 4 6 11 -29 81 -49 94 -6 5 -4 8 5 8 10 0 9
4 -6 14 -11 8 -29 33 -39 55 -11 22 -26 41 -34 41 -8 0 -11 3 -8 6 4 4 -9 21
-27 38 -38 35 -63 76 -46 76 5 0 10 -6 10 -12 0 -9 4 -8 10 2 9 13 10 13 10 0
0 -13 1 -13 10 0 5 8 10 10 10 4 0 -6 18 -17 40 -24 22 -7 40 -17 40 -21 0 -5
7 -6 15 -3 8 4 15 1 15 -7 0 -7 3 -10 6 -6 4 3 24 -3 45 -14 22 -11 39 -16 39
-12 0 5 4 2 9 -5 4 -7 15 -14 24 -16 13 -2 72 -28 129 -57 10 -5 25 -9 33 -9
8 0 15 -5 15 -11 0 -5 4 -8 9 -4 5 3 12 1 16 -5 4 -6 11 -8 16 -5 5 4 12 0 15
-8 3 -9 16 -14 29 -12 14 1 22 -2 19 -6 -3 -5 4 -9 15 -9 12 0 21 -4 21 -8 0
-4 20 -14 45 -21 25 -7 42 -17 39 -22 -3 -5 -2 -9 3 -8 24 4 53 -2 48 -11 -3
-5 3 -10 14 -10 11 0 23 -4 26 -10 3 -5 15 -10 26 -10 13 0 18 -4 13 -12 -4
-7 -3 -8 5 -4 6 4 23 0 37 -9 13 -9 29 -13 34 -10 6 3 10 2 10 -3 0 -12 49
-34 61 -27 5 4 9 2 9 -2 0 -5 9 -14 21 -21 16 -11 19 -11 13 -1 -4 7 6 3 23
-9 17 -12 36 -22 41 -22 5 0 22 -7 38 -14 15 -8 31 -13 36 -10 4 3 8 0 8 -6 0
-6 4 -9 8 -6 5 3 21 -1 36 -9 18 -10 24 -10 19 -2 -4 8 -1 7 10 -1 9 -8 21
-11 27 -7 5 3 10 1 10 -5 0 -6 4 -9 9 -5 5 3 13 0 16 -6 4 -5 13 -8 21 -5 8 3
14 0 14 -7 0 -8 4 -6 10 3 7 11 10 11 10 2 0 -7 5 -10 10 -7 6 3 10 1 10 -5 0
-8 6 -8 20 0 11 6 20 7 20 1 0 -5 18 -11 40 -13 23 -2 40 1 40 7 0 5 4 3 10
-5 5 -8 12 -11 16 -7 4 4 14 1 22 -6 10 -8 13 -8 9 0 -5 7 4 11 28 11 20 0 35
-5 35 -11 0 -9 2 -9 8 -1 6 10 43 17 137 27 11 2 26 7 34 11 11 7 12 6 6 -5
-7 -11 -6 -12 6 -2 8 6 16 11 19 11 3 0 25 6 50 13 25 7 48 12 53 11 4 -1 7 3
7 9 0 5 4 8 9 4 5 -3 12 -1 16 5 4 6 11 8 16 5 5 -4 9 -2 9 4 0 6 7 7 17 4 10
-4 14 -2 10 4 -4 6 4 14 18 17 14 4 23 11 20 15 -3 5 4 7 15 4 12 -3 20 0 20
7 0 7 7 10 16 6 8 -3 13 -2 10 3 -6 9 22 26 37 22 5 -1 6 2 3 7 -2 4 13 19 35
32 21 14 39 28 39 32 0 4 9 10 20 13 11 4 18 10 15 15 -3 5 3 11 13 14 10 4
25 17 32 31 7 13 16 22 20 20 5 -3 11 6 14 20 4 17 11 23 23 18 11 -4 14 -3 9
5 -4 7 0 15 9 18 9 4 14 13 11 20 -3 8 -2 13 2 11 4 -1 8 3 10 8 2 6 10 14 18
18 8 4 14 15 14 22 0 8 4 15 8 15 5 0 14 16 22 35 8 19 17 35 22 35 4 0 8 11
8 25 0 13 8 29 18 34 9 6 13 11 8 11 -5 0 -3 7 4 15 6 8 9 18 6 24 -3 5 -1 11
4 13 6 2 13 16 16 33 3 16 10 35 15 41 7 8 6 14 -3 17 -10 4 -10 6 0 6 6 1 12
12 12 26 0 14 3 25 8 25 6 0 11 54 16 185 1 22 -2 50 -6 63 -4 13 -4 21 1 18
5 -3 9 5 9 19 0 14 -3 23 -7 21 -4 -3 -7 4 -7 15 0 10 4 19 9 19 5 0 4 7 -3
15 -7 9 -10 18 -8 21 3 3 0 25 -7 49 -8 24 -11 46 -8 49 4 3 0 6 -8 6 -11 0
-11 2 1 10 10 6 11 10 3 10 -7 0 -13 9 -13 20 0 11 -4 20 -9 20 -6 0 -8 9 -6
19 2 11 -3 22 -12 25 -13 5 -13 9 -2 23 10 12 10 15 1 9 -8 -5 -14 2 -18 23
-4 18 -11 28 -17 24 -6 -4 -8 0 -4 10 3 10 2 17 -3 17 -6 0 -10 6 -10 13 0 8
-9 22 -20 32 -11 10 -20 26 -20 37 0 10 -4 18 -10 18 -5 0 -10 4 -10 10 0 18
-173 200 -191 200 -5 0 -7 5 -4 10 3 6 -4 10 -16 10 -12 0 -19 3 -16 7 8 7
-34 39 -45 35 -5 -1 -8 2 -8 6 0 9 -59 45 -79 49 -8 1 -18 9 -23 17 -5 8 -15
13 -23 10 -10 -4 -15 0 -16 12 0 11 -3 14 -6 7 -3 -10 -8 -9 -20 2 -8 8 -19
13 -24 10 -5 -4 -9 -1 -9 5 0 6 -4 8 -10 5 -5 -3 -18 -1 -29 5 -11 5 -31 11
-45 12 -15 1 -26 7 -26 12 0 5 -3 6 -7 3 -3 -4 -13 -1 -21 6 -13 10 -14 9 -7
-3 8 -13 7 -13 -8 -1 -9 7 -17 10 -17 5 0 -5 -5 -2 -10 6 -8 12 -10 12 -10 1
0 -9 -4 -10 -12 -4 -7 5 -39 9 -70 8 -32 0 -58 4 -58 10 0 7 -3 7 -8 0 -4 -5
-47 -11 -97 -12 -114 -2 -155 -6 -155 -15 0 -4 -7 -5 -15 -2 -8 4 -15 2 -15
-3 0 -5 -11 -10 -26 -11 -14 -1 -34 -7 -45 -12 -10 -6 -19 -7 -19 -3 0 4 -5 0
-11 -10 -6 -9 -14 -15 -20 -12 -5 4 -9 1 -9 -5 0 -6 -4 -8 -10 -5 -5 3 -19 -3
-31 -14 -12 -11 -26 -18 -31 -15 -4 3 -8 0 -8 -5 0 -6 -8 -11 -18 -11 -11 0
-27 -9 -37 -20 -10 -11 -24 -20 -31 -20 -7 0 -20 -7 -28 -16 -9 -8 -16 -12
-16 -8 0 4 -7 -1 -16 -12 -8 -10 -13 -13 -9 -7 3 8 -6 6 -24 -5 -17 -9 -31
-21 -31 -25 0 -5 -4 -5 -10 -2 -5 3 -10 1 -10 -6 0 -7 -3 -9 -7 -6 -3 4 -12
-1 -20 -11 -10 -11 -12 -12 -8 -2 4 10 2 9 -8 -2 -8 -10 -17 -15 -21 -11 -3 4
-13 -2 -21 -13 -8 -10 -15 -14 -15 -9 0 7 -3 7 -8 0 -13 -18 -53 -36 -64 -29
-7 4 -8 3 -4 -4 4 -7 1 -12 -8 -12 -9 0 -16 -5 -16 -11 0 -5 -4 -7 -10 -4 -5
3 -10 1 -10 -5 0 -7 -7 -10 -15 -6 -8 3 -14 0 -12 -6 1 -7 -4 -12 -11 -13 -7
0 -16 -6 -21 -13 -5 -8 -12 -13 -17 -13 -18 1 -44 -11 -44 -20 0 -6 -5 -7 -10
-4 -6 3 -13 0 -16 -8 -2 -7 -10 -14 -17 -14 -23 -1 -107 -50 -99 -58 4 -4 0
-6 -8 -3 -8 3 -21 -1 -28 -9 -8 -7 -18 -10 -24 -7 -6 4 -8 2 -5 -3 8 -13 -20
-26 -35 -16 -6 3 -8 1 -5 -4 6 -10 -14 -25 -35 -27 -4 -1 -16 -9 -27 -18 -11
-9 -22 -14 -25 -11 -3 4 -6 0 -6 -7 0 -7 -3 -11 -6 -7 -4 3 -13 -1 -21 -9 -8
-8 -19 -12 -24 -9 -5 4 -9 1 -9 -4 0 -6 -7 -11 -16 -11 -9 0 -12 -5 -8 -12 4
-7 4 -10 -1 -6 -4 4 -16 3 -27 -3 -26 -14 -54 7 -37 27 6 8 8 14 4 14 -4 0 0
11 9 25 9 14 14 25 11 25 -3 0 -1 10 6 21 9 17 8 20 -3 13 -10 -6 -11 -5 -1 8
7 8 10 18 6 21 -3 4 -2 7 3 7 12 0 14 23 16 172 0 87 -3 122 -13 135 -12 15
-12 16 1 8 12 -7 13 -6 4 6 -11 13 -14 28 -15 72 0 9 -4 17 -7 17 -7 0 -11 16
-14 58 -1 6 -5 12 -10 12 -4 0 -8 9 -8 20 0 11 -4 20 -9 20 -5 0 -11 13 -14
29 -3 16 -12 35 -20 42 -7 8 -12 20 -9 27 2 6 -3 15 -12 18 -9 3 -16 12 -16
18 0 7 -6 18 -12 25 -7 6 -14 16 -14 22 -1 5 -2 14 -3 20 0 5 -5 8 -9 5 -10
-6 -43 30 -35 38 4 3 -1 6 -11 6 -9 0 -15 3 -13 8 5 9 -30 42 -37 35 -3 -4 -6
1 -6 11 0 9 -4 15 -9 11 -5 -3 -12 4 -16 15 -3 11 -13 20 -21 20 -8 0 -17 7
-20 15 -3 8 -26 24 -50 37 -24 12 -44 26 -44 30 0 5 -4 6 -10 3 -5 -3 -10 -3
-10 2 0 4 -18 17 -40 27 -25 12 -39 25 -36 33 3 7 0 13 -7 13 -8 0 -9 2 -1 8
6 4 10 15 8 25 -1 9 2 17 7 17 6 0 7 5 4 10 -3 6 -1 10 5 10 6 0 9 4 5 10 -6
10 10 43 37 74 10 10 15 24 11 29 -3 6 -1 7 5 3 7 -4 12 -3 12 1 0 8 19 12 73
14 9 0 15 4 13 8 -3 4 1 8 9 8 8 0 12 -4 9 -9 -7 -11 3 -10 28 3 15 8 19 8 14
0 -8 -13 21 -10 43 3 9 6 12 5 8 -1 -4 -6 4 -10 18 -10 14 0 22 4 18 10 -4 6
-1 7 6 2 19 -11 81 -13 87 -3 3 5 11 5 17 0 14 -10 27 -10 44 1 6 4 15 2 19
-4 5 -8 3 -9 -6 -4 -9 6 -11 4 -5 -5 6 -10 11 -9 22 5 7 11 13 14 13 8 0 -13
18 -12 39 2 10 5 16 4 19 -3 4 -12 39 3 53 21 3 5 10 9 15 10 5 1 8 5 7 9 -2
4 5 4 14 1 11 -4 14 -3 9 5 -4 7 -2 12 4 12 6 0 9 4 6 9 -4 5 -3 11 1 13 5 1
15 17 24 33 13 26 14 36 3 67 -7 20 -10 39 -7 42 4 3 1 6 -6 6 -7 0 -9 5 -6
10 3 6 -1 10 -10 10 -9 0 -13 5 -10 10 3 6 -1 13 -9 16 -9 3 -13 11 -9 17 3 6
1 7 -5 3 -6 -4 -22 0 -35 9 -13 8 -32 13 -41 9 -9 -3 -16 -2 -16 3 0 5 -7 10
-15 10 -8 0 -15 -4 -15 -8 0 -4 -13 -4 -30 1 -21 6 -30 5 -30 -3 0 -7 -4 -6
-10 3 -9 13 -10 13 -10 0 0 -12 -2 -12 -8 -2 -7 9 -15 10 -35 3 -15 -6 -27 -7
-27 -3 0 4 -13 7 -30 8 -16 1 -27 -2 -25 -6 3 -4 -10 -4 -29 0 -19 4 -41 3
-51 -3 -13 -7 -16 -6 -10 3 6 9 3 9 -13 1 -14 -8 -21 -8 -24 0 -2 7 -12 7 -31
0 -16 -6 -27 -7 -27 -1 0 6 -9 6 -24 0 -16 -6 -27 -5 -35 3 -10 9 -12 9 -9 -2
3 -13 -4 -15 -74 -23 -10 -1 -18 -6 -18 -11 0 -4 -4 -5 -10 -2 -5 3 -10 2 -10
-3 0 -5 -16 -17 -36 -27 -19 -9 -38 -23 -41 -31 -3 -8 -11 -14 -18 -14 -7 0
-21 -12 -30 -27 -10 -16 -27 -36 -39 -46 -11 -10 -15 -16 -9 -12 8 3 6 -6 -5
-24 -9 -17 -21 -31 -25 -31 -5 0 -5 -4 -2 -10 3 -5 1 -10 -4 -10 -6 0 -11 -9
-11 -21 0 -11 -3 -18 -7 -16 -5 3 -9 -9 -10 -26 -1 -17 -6 -33 -10 -36 -8 -6
-14 -24 -16 -53 -1 -10 -5 -18 -9 -18 -4 0 -5 -6 -2 -14 6 -15 -29 -32 -45
-22 -5 4 -12 0 -14 -6 -4 -10 -6 -10 -6 -1 -1 7 -7 10 -14 7 -21 -8 -46 19
-49 54 -1 17 -6 32 -11 32 -5 0 -7 9 -4 20 3 11 1 20 -5 20 -6 0 -8 7 -4 15 3
8 2 15 -2 15 -8 0 -32 49 -32 65 0 6 -9 21 -20 33 -12 12 -18 22 -15 22 4 0 0
7 -7 15 -31 34 -38 45 -38 56 0 7 -3 9 -6 6 -4 -3 -15 5 -26 18 -11 14 -26 25
-34 25 -8 0 -14 5 -14 12 0 6 -3 9 -6 5 -3 -3 -15 3 -27 14 -11 10 -30 19 -42
19 -11 0 -25 4 -31 9 -5 5 -22 11 -39 12 -16 2 -35 7 -42 12 -6 4 -14 4 -17
-1 -3 -6 -20 -7 -40 -2 -19 4 -40 4 -47 0 -7 -5 -17 -7 -23 -5 -42 12 -67 15
-61 6 4 -7 -2 -8 -17 -2 -13 4 -35 5 -50 0 -16 -4 -28 -5 -28 -1 0 4 -16 7
-35 8 -18 0 -32 -3 -29 -8 3 -4 -6 -4 -19 1 -13 5 -30 6 -37 1 -7 -5 -23 -4
-36 0 -12 5 -25 6 -28 2z m898 -804 c-3 -4 0 -8 5 -8 6 0 11 4 11 8 0 4 14 8
30 7 17 0 30 -3 30 -7 0 -4 14 -3 30 2 17 5 28 5 25 1 -2 -5 5 -9 18 -9 30 0
51 -5 58 -15 3 -4 16 -9 27 -10 12 -1 22 -5 22 -9 0 -4 8 -8 18 -8 10 0 28 -7
40 -16 12 -8 22 -12 22 -7 0 4 7 -1 15 -11 8 -11 15 -16 15 -11 0 4 9 -2 19
-14 11 -12 22 -22 25 -22 19 2 29 0 23 -5 -3 -3 14 -25 39 -48 24 -23 44 -48
44 -55 0 -7 5 -9 10 -6 6 3 10 0 10 -8 0 -8 9 -24 20 -37 11 -13 20 -32 20
-42 0 -11 4 -17 8 -14 4 2 9 -7 10 -21 1 -13 5 -30 9 -36 8 -12 12 -29 15 -59
1 -10 5 -18 8 -18 3 0 6 -9 7 -20 1 -13 -2 -18 -10 -13 -9 5 -9 3 -1 -8 13
-16 18 -135 6 -143 -10 -6 -8 -48 2 -64 4 -7 1 -15 -8 -18 -8 -3 -13 -14 -11
-25 2 -10 0 -19 -6 -19 -5 0 -9 -9 -9 -19 0 -11 -5 -23 -10 -26 -6 -4 -8 -11
-5 -16 4 -5 -1 -12 -9 -15 -9 -3 -14 -10 -11 -15 8 -11 -65 -110 -76 -103 -5
3 -6 -3 -2 -13 3 -10 3 -15 -1 -12 -8 7 -66 -48 -66 -62 0 -6 -5 -7 -10 -4 -6
3 -13 -1 -16 -9 -3 -9 -10 -13 -15 -10 -5 3 -9 0 -9 -6 0 -6 -4 -8 -10 -5 -5
3 -10 2 -10 -2 0 -9 -53 -38 -88 -48 -12 -4 -20 -9 -18 -13 2 -4 -7 -8 -20 -9
-13 -2 -35 -4 -49 -5 -14 -2 -25 -7 -25 -13 0 -5 -5 -3 -10 5 -7 11 -10 12
-10 2 0 -9 -7 -11 -19 -7 -11 3 -22 1 -26 -5 -4 -6 -12 -7 -18 -3 -15 10 -38
10 -54 0 -7 -5 -13 -4 -13 1 0 5 -15 9 -32 9 -39 1 -58 5 -77 17 -10 7 -12 6
-6 -4 5 -8 -7 -3 -25 10 -18 13 -30 19 -26 12 6 -9 2 -10 -18 -1 -14 7 -23 16
-20 21 3 5 2 8 -3 7 -25 -4 -43 2 -37 13 5 8 2 9 -10 5 -10 -4 -19 -1 -22 8
-4 8 -12 15 -20 15 -8 0 -14 4 -14 9 0 5 -9 11 -21 14 -12 3 -18 10 -15 16 4
5 -3 12 -14 16 -11 3 -20 13 -20 20 0 8 -9 19 -20 25 -11 6 -20 17 -20 25 0 8
-4 15 -10 15 -5 0 -10 6 -10 14 0 8 -7 17 -16 20 -8 3 -13 10 -10 15 4 5 2 11
-3 13 -5 1 -11 12 -13 23 -1 11 -7 23 -11 26 -5 3 -10 15 -12 25 -2 10 -4 20
-5 22 -2 1 -3 5 -4 10 -1 4 -5 13 -10 21 -7 11 -6 12 5 5 11 -6 10 -2 -2 16
-9 14 -15 35 -14 48 1 12 -1 22 -4 22 -3 0 -5 33 -4 72 1 40 2 73 3 73 1 0 3
14 4 30 3 40 9 59 21 67 6 5 5 8 -3 8 -10 0 -9 4 2 16 9 8 14 20 11 25 -4 5
-1 9 5 9 6 0 9 4 5 9 -3 5 -1 12 5 16 6 4 8 11 5 16 -4 5 -1 9 6 9 7 0 10 3 6
6 -3 4 4 15 16 25 12 10 16 18 10 19 -7 0 -13 -5 -13 -12 0 -6 -3 -8 -7 -5 -3
4 10 23 31 43 20 19 34 40 30 45 -3 5 -2 8 3 7 4 -2 27 16 50 39 23 22 44 39
47 36 3 -3 8 2 12 11 3 9 10 13 15 10 5 -3 9 -1 9 5 0 6 6 8 14 5 7 -3 16 2
20 11 3 9 10 13 16 10 5 -3 10 -2 10 3 0 10 26 21 70 29 14 2 32 10 40 17 8 6
30 11 48 10 17 -1 30 1 28 5 -3 4 4 7 14 7 10 0 16 -4 14 -8z m-2320 -429 c-5
-9 1 -10 20 -5 16 4 34 2 41 -4 9 -7 15 -7 19 -1 4 6 16 6 34 1 15 -5 38 -11
52 -13 14 -2 41 -10 60 -18 19 -7 38 -12 43 -11 4 1 7 -3 7 -8 0 -6 18 -17 40
-26 24 -10 37 -21 33 -28 -3 -6 -3 -8 2 -4 4 4 15 2 23 -5 13 -10 15 -9 8 3
-7 13 -6 13 6 0 17 -19 78 -54 78 -44 0 4 8 -3 19 -14 10 -12 21 -19 25 -15 3
3 6 1 6 -5 0 -7 3 -12 8 -11 15 2 52 -14 52 -23 0 -6 7 -7 16 -4 8 3 12 2 9
-4 -3 -5 6 -12 20 -16 14 -3 25 -10 25 -15 0 -5 6 -9 14 -9 7 0 26 -10 42 -22
15 -13 24 -16 19 -8 -4 8 3 5 17 -8 13 -12 28 -19 31 -15 4 3 7 -1 7 -11 0
-10 5 -14 11 -11 6 4 17 -1 25 -11 9 -11 13 -13 9 -6 -3 6 -1 12 4 12 6 0 11
-7 11 -15 0 -8 5 -15 11 -15 5 0 7 5 3 12 -4 6 5 3 19 -8 15 -10 27 -22 27
-26 0 -5 7 -8 16 -8 8 0 22 -7 31 -15 8 -8 19 -13 24 -10 5 4 9 1 9 -5 0 -6 4
-9 9 -6 5 3 12 -1 15 -10 3 -9 13 -14 20 -11 8 3 17 -1 20 -9 3 -8 14 -14 24
-14 10 0 28 -9 40 -20 12 -11 28 -20 37 -20 8 0 15 -4 15 -9 0 -5 14 -14 31
-20 21 -7 28 -15 23 -23 -6 -10 -4 -10 8 0 13 10 18 10 24 1 5 -8 3 -9 -6 -4
-9 5 -11 4 -6 -3 4 -7 16 -12 27 -12 10 0 19 -5 19 -11 0 -5 4 -8 8 -5 5 3 18
-3 29 -14 12 -10 23 -17 26 -14 4 5 65 -32 94 -56 7 -6 15 -10 18 -10 28 1 35
-1 30 -9 -5 -9 32 -27 48 -23 4 1 7 -3 7 -9 0 -5 5 -7 10 -4 6 3 10 -1 10 -9
0 -10 6 -13 15 -10 8 4 15 1 15 -5 0 -6 9 -11 20 -11 10 0 23 -7 28 -16 5 -9
11 -16 13 -15 17 2 48 -13 42 -22 -3 -5 -1 -7 5 -3 6 3 27 -5 47 -19 21 -13
41 -23 45 -20 4 3 11 -2 14 -11 3 -8 9 -13 14 -10 4 2 8 -4 8 -15 0 -12 -7
-19 -19 -19 -11 0 -15 -4 -11 -12 5 -7 2 -9 -8 -5 -9 3 -21 0 -28 -6 -10 -9
-11 -9 -4 3 4 8 -5 5 -20 -8 -16 -12 -32 -19 -37 -16 -5 3 -9 1 -9 -4 0 -5 -7
-9 -15 -10 -8 -1 -22 -3 -30 -4 -8 -1 -12 -5 -9 -9 6 -11 -33 -22 -47 -13 -8
4 -9 3 -5 -4 4 -7 2 -13 -3 -13 -12 -2 -26 -5 -38 -9 -5 -1 -11 -2 -15 -1 -5
0 -8 -3 -8 -9 0 -5 -9 -10 -20 -10 -11 0 -20 -5 -20 -11 0 -6 -9 -9 -20 -6
-11 3 -20 1 -20 -3 0 -9 -55 -33 -80 -35 -8 0 -14 -6 -13 -12 1 -6 -3 -10 -10
-10 -37 1 -57 -4 -52 -13 3 -5 4 -10 1 -10 -2 0 -12 -3 -22 -7 -13 -5 -15 -3
-9 8 5 8 1 7 -12 -4 -11 -9 -23 -14 -26 -10 -4 3 -7 1 -7 -5 0 -7 -9 -12 -21
-12 -11 0 -17 -4 -14 -10 4 -6 -1 -7 -10 -3 -10 3 -20 0 -25 -7 -4 -6 -19 -13
-33 -13 -14 -1 -23 -5 -20 -9 4 -7 -12 -12 -29 -9 -5 0 -8 -3 -8 -9 0 -6 -3
-9 -7 -8 -17 3 -63 -15 -63 -25 0 -6 -3 -7 -7 -4 -3 4 -15 -1 -26 -10 -11 -10
-17 -12 -13 -5 4 6 2 12 -3 12 -6 0 -11 -4 -11 -8 0 -13 -70 -41 -71 -28 0 7
-2 6 -6 -1 -2 -7 -11 -13 -19 -13 -8 0 -14 -4 -14 -10 0 -5 -9 -10 -19 -10
-11 0 -27 -7 -35 -16 -12 -12 -16 -12 -16 -2 0 10 -2 10 -9 -1 -5 -7 -13 -11
-19 -7 -6 3 -15 -1 -20 -9 -4 -9 -18 -17 -30 -18 -12 -1 -22 -5 -22 -9 0 -4
-3 -7 -7 -6 -5 1 -18 -3 -30 -10 -13 -7 -23 -10 -23 -7 0 4 -7 0 -15 -9 -9 -8
-22 -13 -30 -10 -8 4 -15 1 -15 -5 0 -6 -8 -11 -17 -11 -10 0 -26 -7 -36 -15
-11 -7 -25 -11 -33 -8 -8 3 -14 1 -14 -4 0 -12 -49 -35 -60 -28 -4 3 -11 -2
-14 -10 -3 -8 -9 -14 -13 -13 -4 0 -21 -4 -36 -10 -16 -7 -35 -12 -43 -12 -8
0 -13 -4 -10 -8 2 -4 -5 -9 -16 -9 -12 -1 -24 -6 -27 -10 -3 -5 -13 -8 -21 -8
-8 0 -18 -4 -22 -10 -5 -6 -8 -5 -8 3 0 11 -3 11 -14 0 -10 -10 -38 -14 -94
-13 -44 0 -78 -3 -75 -8 3 -5 -3 -5 -13 0 -23 11 -54 11 -72 0 -7 -5 -12 -5
-11 0 3 20 -2 25 -16 13 -11 -9 -15 -9 -15 -1 0 7 -4 9 -10 6 -5 -3 -10 0 -10
7 0 9 -3 9 -10 -2 -6 -9 -10 -10 -10 -3 0 6 -9 10 -20 8 -11 -2 -20 0 -20 6 0
5 -13 9 -29 9 -17 0 -33 5 -37 11 -3 6 -15 9 -25 6 -11 -3 -16 -1 -13 4 3 5
-3 12 -13 15 -33 11 -68 29 -75 39 -4 5 -13 10 -20 10 -19 1 -58 37 -51 48 3
6 1 7 -5 3 -6 -4 -19 2 -29 13 -9 11 -20 18 -25 15 -4 -3 -8 3 -8 12 0 10 -3
15 -6 11 -8 -8 -33 16 -27 26 2 4 -3 7 -11 7 -9 0 -16 5 -16 10 0 22 -2 25
-21 32 -11 4 -18 12 -14 17 3 5 -4 13 -16 16 -17 6 -19 9 -8 16 11 7 10 9 -5
9 -11 0 -16 5 -13 13 3 7 -4 19 -14 25 -10 7 -19 21 -19 32 0 11 -5 20 -11 20
-6 0 -9 6 -6 14 3 8 -1 17 -10 20 -9 4 -13 9 -9 13 3 3 -2 15 -11 26 -13 15
-14 18 -3 12 12 -6 13 -5 2 6 -6 7 -12 23 -12 35 0 12 -4 24 -10 26 -5 2 -10
20 -12 41 -1 20 -5 37 -9 37 -4 0 -6 12 -5 28 2 15 0 37 -5 50 -6 15 -5 22 4
22 8 0 7 4 -3 10 -8 5 -10 10 -5 10 6 0 10 19 10 42 0 24 -4 46 -10 50 -6 5
-5 8 4 8 8 0 11 6 7 16 -4 9 -2 22 4 29 8 9 8 15 0 20 -6 3 -7 12 -3 18 4 7 9
23 11 37 2 13 6 27 10 30 8 6 12 23 16 58 2 13 9 28 17 33 8 5 10 9 5 9 -5 0
-3 6 3 13 6 8 8 17 4 20 -3 4 -1 7 6 7 8 0 11 7 7 15 -3 9 0 15 9 15 8 0 14 3
13 8 -3 13 15 47 35 65 11 9 16 17 12 17 -5 0 0 7 11 15 10 8 15 15 10 15 -5
0 3 11 18 25 15 14 25 25 22 25 -4 0 2 8 12 18 9 10 19 17 21 16 6 -5 29 21
24 28 -2 4 4 5 13 1 12 -4 15 -3 10 5 -4 7 -1 12 9 12 9 0 13 5 10 10 -3 6 3
10 14 10 12 0 20 6 19 13 -2 6 3 11 10 9 6 -1 12 2 12 8 0 6 5 10 11 10 7 0
18 8 26 18 8 9 11 10 7 3 -4 -9 7 -4 26 9 18 13 30 17 25 9 -5 -9 -1 -8 12 4
11 9 25 17 31 17 7 0 12 4 12 9 0 4 11 7 25 6 14 -2 23 1 19 6 -3 5 6 9 20 9
14 0 26 4 26 8 0 8 21 11 83 13 15 1 27 4 27 8 0 3 25 6 55 5 31 0 58 3 61 8
3 4 7 8 10 8 3 0 2 -5 -2 -11z m4816 -11 c0 -11 23 -5 32 7 5 6 8 6 8 -1 0 -6
14 -10 30 -9 17 1 30 -2 30 -6 0 -5 7 -6 15 -3 9 4 15 0 15 -7 0 -11 3 -11 10
1 7 12 10 12 10 1 0 -7 6 -11 15 -7 8 3 15 1 15 -5 0 -6 5 -7 10 -4 6 3 10 2
10 -4 0 -6 7 -7 17 -4 12 5 14 3 8 -7 -6 -10 -4 -12 8 -7 9 3 19 2 22 -3 4 -6
15 -10 26 -10 10 0 19 -4 19 -10 0 -5 9 -10 20 -10 11 0 20 -4 20 -10 0 -5 7
-10 15 -10 8 0 15 -4 15 -10 0 -5 7 -10 15 -10 8 0 15 -4 15 -10 0 -5 7 -10
15 -10 7 0 19 -8 24 -17 6 -10 11 -15 11 -11 0 4 15 -7 34 -25 18 -18 31 -36
28 -41 -3 -5 -1 -7 4 -3 10 6 45 -16 46 -30 1 -16 25 -43 32 -35 4 4 7 2 6 -3
-5 -23 1 -36 13 -29 6 4 9 4 5 -1 -5 -5 4 -23 18 -42 14 -18 22 -33 19 -33 -4
0 3 -13 14 -29 11 -15 18 -31 14 -35 -3 -3 -1 -6 6 -6 6 0 11 -8 9 -17 -2 -11
2 -17 11 -15 12 3 12 0 2 -11 -8 -11 -8 -16 -1 -19 6 -2 12 -13 13 -26 0 -12
4 -22 7 -22 7 0 12 -31 13 -77 0 -18 4 -33 9 -33 4 0 8 -9 8 -21 0 -13 -4 -18
-12 -13 -10 6 -10 5 -1 -7 9 -11 11 -46 7 -119 -6 -136 -7 -140 -16 -140 -4 0
-10 -20 -14 -45 -3 -25 -10 -48 -15 -51 -5 -3 -7 -10 -4 -15 4 -5 1 -9 -5 -9
-6 0 -9 -4 -5 -9 3 -5 1 -12 -5 -16 -5 -3 -10 -15 -10 -26 0 -10 -6 -19 -14
-19 -10 0 -13 -7 -11 -20 2 -11 0 -18 -6 -15 -8 6 -14 -16 -10 -38 1 -5 -3 -6
-8 -3 -11 7 -33 -18 -24 -27 3 -4 1 -7 -5 -7 -6 0 -14 -9 -17 -20 -4 -11 -11
-18 -16 -15 -5 4 -9 1 -9 -5 0 -7 -9 -23 -20 -37 -11 -14 -20 -23 -20 -20 0 4
-20 -13 -45 -37 -25 -25 -45 -42 -45 -39 0 4 -9 -4 -20 -17 -11 -13 -20 -19
-20 -15 0 5 -7 0 -15 -11 -8 -10 -15 -15 -15 -11 0 5 -12 -1 -26 -12 -15 -11
-30 -18 -35 -15 -5 3 -9 0 -9 -6 0 -7 -6 -10 -12 -8 -7 3 -19 -1 -26 -9 -8 -7
-18 -11 -23 -8 -5 4 -9 1 -9 -4 0 -6 -11 -11 -24 -11 -14 0 -27 -4 -30 -8 -2
-4 -19 -9 -37 -10 -18 -2 -37 -8 -41 -15 -6 -9 -8 -9 -8 1 0 8 -5 10 -12 5 -7
-4 -54 -8 -104 -9 -51 -1 -98 -5 -104 -9 -9 -5 -11 -4 -6 3 5 8 -1 12 -14 12
-13 0 -19 -4 -14 -11 3 -6 -5 -3 -20 6 -14 10 -34 15 -44 13 -10 -3 -23 1 -30
9 -7 7 -21 13 -31 13 -11 0 -22 7 -25 16 -3 8 -10 12 -16 9 -15 -9 -51 5 -44
17 4 6 3 9 -2 5 -5 -3 -26 3 -47 13 -20 10 -35 14 -31 9 3 -5 -9 -1 -27 10
-18 11 -36 18 -41 15 -4 -3 -8 0 -8 6 0 6 -4 8 -10 5 -5 -3 -10 -1 -10 5 0 6
-4 9 -9 5 -5 -3 -13 0 -16 6 -4 5 -14 8 -22 5 -8 -3 -11 -1 -8 4 5 9 -15 15
-37 11 -5 0 -8 4 -8 9 0 6 -9 10 -20 10 -11 0 -20 5 -20 10 0 6 -6 10 -13 10
-8 0 -28 7 -46 16 -29 14 -50 21 -74 23 -5 1 -6 5 -3 9 2 4 -6 9 -19 10 -13 1
-39 10 -57 20 -18 10 -45 22 -60 26 -16 3 -28 10 -28 15 0 4 -11 7 -25 6 -14
-2 -23 1 -19 6 5 8 -9 13 -28 10 -5 0 -8 4 -8 10 0 5 -4 7 -10 4 -5 -3 -10 -1
-10 4 0 6 -5 11 -11 11 -5 0 -7 -6 -3 -12 4 -7 -2 -5 -13 5 -11 9 -27 17 -36
17 -9 0 -17 5 -17 11 0 5 -4 8 -9 4 -6 -3 -14 3 -20 12 -8 13 -10 14 -11 4 0
-11 -4 -10 -16 5 -8 10 -12 13 -8 5 5 -10 3 -12 -7 -5 -8 5 -16 9 -19 9 -5 1
-81 35 -133 60 -19 10 -25 10 -20 2 8 -13 -28 12 -39 28 -5 6 -8 4 -8 -5 0 -9
-3 -11 -8 -5 -4 6 -16 17 -26 25 -18 13 -19 13 -11 0 5 -9 0 -8 -13 4 -12 11
-25 16 -28 13 -4 -3 -13 1 -21 9 -8 8 -19 12 -24 9 -5 -4 -9 -1 -9 6 0 7 -3 9
-6 6 -4 -4 -20 3 -37 15 -19 13 -28 16 -23 7 6 -11 4 -11 -6 1 -7 9 -23 15
-35 14 -12 -1 -20 2 -18 7 3 4 1 10 -5 14 -5 3 -10 1 -10 -5 0 -7 -7 -5 -16 4
-8 9 -20 14 -25 11 -5 -4 -9 -1 -9 4 0 6 -8 11 -18 11 -10 0 -28 7 -40 16 -12
8 -22 12 -22 7 0 -4 -5 0 -11 10 -12 20 6 52 22 41 5 -3 9 -2 9 3 0 4 14 16
31 25 16 10 27 13 23 7 -3 -6 3 -5 15 3 12 7 21 17 21 21 0 5 7 7 15 4 8 -4
17 -1 21 5 5 7 2 8 -6 3 -9 -5 -11 -4 -6 3 4 7 14 12 22 12 8 0 14 5 14 11 0
5 4 8 9 4 5 -3 16 1 24 9 8 8 17 12 21 9 3 -4 6 -1 6 5 0 7 6 11 13 9 6 -1 11
3 10 10 -2 7 3 10 11 7 8 -3 17 0 21 5 3 6 11 9 16 6 5 -4 9 1 9 10 0 9 5 13
10 10 6 -3 10 -1 10 5 0 6 5 8 10 5 6 -3 10 -1 10 6 0 7 3 10 6 6 4 -3 13 1
21 9 8 8 19 12 24 9 5 -4 9 -1 9 4 0 6 7 11 15 11 8 0 15 5 15 11 0 5 4 8 9 4
6 -3 14 2 19 11 5 9 12 15 15 15 20 -3 28 0 22 9 -3 6 1 7 9 4 9 -3 16 -1 16
6 0 6 5 8 10 5 6 -3 10 -1 10 6 0 7 3 9 7 6 3 -4 12 1 20 11 9 10 11 11 7 2
-7 -12 -5 -13 8 -3 8 7 19 9 23 5 5 -4 5 -2 2 4 -7 13 20 29 42 25 7 -1 10 2
7 7 -3 5 2 16 11 23 14 12 16 12 8 -1 -8 -13 -7 -13 8 -1 9 7 17 10 17 5 0 -5
5 -1 11 9 6 9 14 15 20 12 5 -4 12 1 15 9 3 9 10 14 14 11 5 -3 16 2 24 11 9
8 16 12 16 7 0 -4 7 0 15 11 8 11 20 16 30 12 9 -3 13 -2 10 4 -3 6 1 10 9 10
9 0 16 5 16 11 0 5 5 7 10 4 6 -3 10 -1 10 6 0 7 3 9 6 6 4 -4 15 3 25 15 13
14 19 17 20 7 0 -10 2 -11 6 -1 2 6 11 12 19 12 8 0 14 4 14 8 0 5 16 14 35
22 19 8 35 18 35 22 0 5 5 6 10 3 6 -3 10 -1 10 5 0 7 6 10 13 7 6 -2 20 5 29
15 9 11 22 17 27 13 6 -3 11 -3 11 2 0 4 15 16 33 27 84 49 97 55 97 49 0 -4
6 2 14 12 8 11 19 16 30 12 9 -4 15 -3 13 1 -3 4 1 12 8 19 11 10 15 10 18 0
3 -7 6 -5 6 5 1 9 6 20 13 24 7 4 8 3 4 -4 -4 -7 -2 -12 3 -12 6 0 11 5 11 10
0 6 7 10 15 10 8 0 15 5 15 11 0 5 5 7 10 4 6 -3 10 -1 10 6 0 7 3 9 7 6 3 -4
14 0 24 9 9 8 26 16 37 17 11 0 18 5 16 9 -5 8 10 12 34 9 6 -1 12 3 12 8 0 5
8 10 18 10 34 0 103 8 107 12 7 8 155 4 155 -3z"/>
</g>
</svg>
